<?xml version="1.0" encoding="windows-1252"?>
<!-- Generator: Adobe Illustrator 19.0.0, SVG Export Plug-In . SVG Version: 6.00 Build 0)  -->
<svg version="1.1" id="Capa_1" xmlns="http://www.w3.org/2000/svg" xmlns:xlink="http://www.w3.org/1999/xlink" x="0px" y="0px" viewBox="0 0 384 384" style="enable-background:new 0 0 384 384;" xml:space="preserve">
<path style="fill:#FFCE55;" d="M214.798,38.4l17.6,120.8c0,0,35.2,16.4,35.2,56.8s0,144.8,0,144.8s-2.4,17.6-17.6,17.6  c-15.2,0-51.6,0-51.6,0h-12c0,0-36.4,0-51.6,0c-15.2,0-17.6-17.6-17.6-17.6s0-104.8,0-144.8s35.2-56.8,35.2-56.8l17.6-120.8H214.798  z"/>
<path style="fill:#FFDE94;" d="M141.198,360.8c0,0,0-104.8,0-144.8c0-40.4,35.2-56.8,35.2-56.8l17.6-120.8h-24l-17.6,120.8  c0,0-35.2,16.4-35.2,56.8s0,144.8,0,144.8s2.4,17.6,17.6,17.6c6,0,15.2,0,24,0C143.598,378.4,141.198,360.8,141.198,360.8z"/>
<rect x="117.198" y="219.6" style="fill:#FB6E52;" width="150.8" height="72"/>
<rect x="117.198" y="219.6" style="fill:#F98F7D;" width="25.6" height="72"/>
<path style="fill:#C69C6C;" d="M229.198,22.4c0,8.8-7.2,16-16,16h-41.2c-8.8,0-16-7.2-16-16l0,0c0-8.8,7.2-16,16-16h41.2  C221.998,6.4,229.198,13.6,229.198,22.4L229.198,22.4z"/>
<path style="fill:#CEB093;" d="M180.798,22.4c0-8.8,7.2-16,16-16h-24.4c-8.8,0-16,7.2-16,16s7.2,16,16,16h24.4  C187.998,38.4,180.798,31.2,180.798,22.4z"/>
<path style="fill:#56596A;" d="M237.998,155.2l-16.4-112.8c8-3.2,13.6-11.2,13.6-20.4c0-12-10-22-22-22h-41.2c-12,0-22,10-22,22  c0,9.2,5.6,16.8,13.2,20l-16.4,112.8c-9.2,5.2-36,23.6-36,60.8v144.8c0,0.4,0,0.4,0,0.8c1.2,8,7.6,22.8,23.6,22.8h115.2  c16,0,22.4-14.8,23.6-22.8c0-0.4,0-0.4,0-0.8V216C273.598,178.8,247.198,160.4,237.998,155.2z M162.398,22.4c0-5.6,4.4-10,10-10  h41.2c5.6,0,10,4.4,10,10s-4.4,10-10,10h-41.6C166.798,32,162.398,27.6,162.398,22.4z M261.598,360.4c-0.4,2-2.8,12-11.6,12h-115.2  c-8.8,0-11.2-9.6-11.6-12v-62.8h138.4L261.598,360.4L261.598,360.4z M261.598,285.6h-138.4V226h138.4V285.6z M123.198,213.6  c1.2-34,30.4-48.4,31.6-48.8c2-0.8,3.2-2.8,3.6-4.8l16.8-115.6h34.4l16.8,115.6c0.4,2,1.6,3.6,3.6,4.8c1.2,0.4,30.4,14.8,31.6,48.8  H123.198z"/>
<g>
</g>
<g>
</g>
<g>
</g>
<g>
</g>
<g>
</g>
<g>
</g>
<g>
</g>
<g>
</g>
<g>
</g>
<g>
</g>
<g>
</g>
<g>
</g>
<g>
</g>
<g>
</g>
<g>
</g>
</svg>