<?xml version="1.0" encoding="windows-1252"?>
<!-- Generator: Adobe Illustrator 19.0.0, SVG Export Plug-In . SVG Version: 6.00 Build 0)  -->
<svg version="1.1" id="Capa_1" xmlns="http://www.w3.org/2000/svg" xmlns:xlink="http://www.w3.org/1999/xlink" x="0px" y="0px" viewBox="0 0 311.6 311.6" style="enable-background:new 0 0 311.6 311.6;" xml:space="preserve">
<path style="fill:#EFEFEF;" d="M187.2,24.4c-4.8,0-9.6,1.2-14,2.8C164.8,14.8,150.4,6.4,134,6.4c-16.8,0-31.2,8.8-39.6,22  c-5.2-2.4-10.4-4-16.4-4c-21.2,0-38.4,17.2-38.4,38.4h186C225.2,41.2,208,24.4,187.2,24.4z"/>
<g>
	<path style="fill:#FFFFFF;" d="M98.8,24.4c6,0,11.6,1.6,16.4,4C121.6,18,132,10.8,144.4,7.6c-3.6-0.8-7.2-1.2-10.8-1.2   c-15.2,0-28.4,7.2-37.2,18C97.6,24.4,98,24.4,98.8,24.4z"/>
	<path style="fill:#FFFFFF;" d="M88,26c-3.2-0.8-6.8-1.6-10.4-1.6c-21.2,0-38.4,17.2-38.4,38.4h21.2C60.4,45.2,72,30.4,88,26z"/>
</g>
<path style="fill:#FFCE55;" d="M39.2,86.8v192.4c0,14.4,12,26.4,26.4,26.4h133.2c14.4,0,26.4-12,26.4-26.4V86.8V62.4h-186V86.8z"/>
<path style="fill:#FFDE94;" d="M62.8,279.6V86.8V62.4H39.2v24.4v192.4c0,14.4,12,26.4,26.4,26.4h23.6  C74.8,305.6,62.8,294,62.8,279.6z"/>
<g>
	<path style="fill:#56596A;" d="M240,80.8h-8.8V62.4c0-24.4-20-44.4-44.4-44.4c-4,0-8,0.4-12,1.6C164.8,7.2,149.6,0,133.6,0   c-16.4,0-32,7.6-42,20.4C86.8,18.8,82,18,77.2,18c-24.4,0-44.4,20-44.4,44.4v216.8c0,18,14.4,32.4,32.4,32.4h133.2   c18,0,32.4-14.4,32.4-32.4v-62.4h9.2c21.6,0,38.8-17.6,38.8-38.8v-58.4C278.8,98,261.2,80.8,240,80.8z M77.6,30.4   c4.8,0,9.2,1.2,14,3.2c2.8,1.2,6,0.4,7.6-2.4c7.6-12,20.4-19.2,34.8-19.2c13.6,0,26.4,6.8,34,18c1.6,2.4,4.8,3.2,7.2,2.4   c4-1.6,8-2.4,12-2.4c15.6,0,28.8,11.2,31.6,26H46C48.8,41.6,62,30.4,77.6,30.4z M219.2,279.6c0,11.2-9.2,20.4-20.4,20.4H65.6   c-11.2,0-20.4-9.2-20.4-20.4V92.8h174V279.6z M219.2,80.8h-174V68.4h174V80.8z M266.8,178c0,14.8-12,26.8-26.8,26.8h-8.8v-112h8.8   c14.8,0,26.8,12,26.8,26.8V178z"/>
	<path style="fill:#56596A;" d="M88.4,258c3.2,0,6-2.8,6-6V128.8c0-3.2-2.8-6-6-6s-6,2.8-6,6v122.8C82.4,255.2,85.2,258,88.4,258z"/>
	<path style="fill:#56596A;" d="M131.6,259.2c3.2,0,6-2.8,6-6V130.4c0-3.2-2.8-6-6-6s-6,2.8-6,6v122.8   C125.2,256.4,128,259.2,131.6,259.2z"/>
	<path style="fill:#56596A;" d="M174.4,259.2c3.2,0,6-2.8,6-6V130.4c0-3.2-2.8-6-6-6s-6,2.8-6,6v122.8   C168.4,256.4,171.2,259.2,174.4,259.2z"/>
</g>
<g>
</g>
<g>
</g>
<g>
</g>
<g>
</g>
<g>
</g>
<g>
</g>
<g>
</g>
<g>
</g>
<g>
</g>
<g>
</g>
<g>
</g>
<g>
</g>
<g>
</g>
<g>
</g>
<g>
</g>
</svg>