<?xml version="1.0" encoding="windows-1252"?>
<!-- Generator: Adobe Illustrator 19.0.0, SVG Export Plug-In . SVG Version: 6.00 Build 0)  -->
<svg version="1.1" id="Capa_1" xmlns="http://www.w3.org/2000/svg" xmlns:xlink="http://www.w3.org/1999/xlink" x="0px" y="0px" viewBox="0 0 340.352 340.352" style="enable-background:new 0 0 340.352 340.352;" xml:space="preserve">
<path style="fill:#F4F5F7;" d="M156.784,183.152v106.4c-17.6,3.2-30,11.6-30,22c0,12.8,19.6,23.2,43.6,23.2s43.6-10.4,43.6-23.2  c0-10.4-12.4-18.8-30-22v-106L156.784,183.152z"/>
<g>
	<path style="fill:#FFFFFF;" d="M198.784,301.152c4.8,0.8,9.2,2,13.2,3.6c-2.4-4.4-7.2-8-13.2-10.8V301.152z"/>
	<path style="fill:#FFFFFF;" d="M141.584,322.752c0-10.4,12.4-18.8,30-22v-117.2h-14.8v106.4c-17.6,3.2-30,11.6-30,22   c0,7.2,6.4,14,16.8,18C142.384,327.552,141.584,325.152,141.584,322.752z"/>
</g>
<path style="fill:#F4F5F7;" d="M288.784,39.552c21.6,0,27.2,12.8,12,28.4l-102.4,104c-15.2,15.6-40.4,15.6-55.6,0l-102.4-104  c-15.2-15.6-10-28.4,12-28.4L288.784,39.552L288.784,39.552z"/>
<path style="fill:#FFFFFF;" d="M170.384,171.552l-102.4-104c-15.2-15.6-10-28.4,12-28.4h-27.6c-21.6,0-27.2,12.8-12,28.4l102.4,104  c11.2,11.2,27.6,14.4,41.6,9.2C179.184,178.752,174.384,175.552,170.384,171.552z"/>
<path style="fill:#FFCE55;" d="M174.384,85.552c-41.2-7.6-77.6,7.6-77.6,7.6l0,0l51.6,52.4c12.4,12.4,32.4,12.4,44.4,0l54.4-55.2  C217.184,91.952,188.784,88.352,174.384,85.552z"/>
<path style="fill:#FFDE94;" d="M170.384,143.152l-51.2-52c0,0,10.8-4.4,27.2-7.2c-28,0.8-49.2,9.6-49.2,9.6l51.6,52.4  c9.6,10,24.4,11.6,36,6C179.584,149.952,174.384,147.552,170.384,143.152z"/>
<path style="fill:#FB6E52;" d="M193.984,63.952c0,10.8-8.8,19.6-19.6,19.6c-10.8,0-19.6-8.8-19.6-19.6s8.8-19.6,19.6-19.6  C185.184,43.952,193.984,53.152,193.984,63.952z"/>
<path style="fill:#F98F7D;" d="M168.384,63.952c0-8.4,5.2-15.6,12.8-18.4c-2-0.8-4.4-1.2-6.8-1.2c-10.8,0-19.6,8.8-19.6,19.6  s8.8,19.6,19.6,19.6c2.4,0,4.8-0.4,6.8-1.2C173.584,79.552,168.384,72.352,168.384,63.952z"/>
<path style="fill:#56596A;" d="M313.984,45.152c-2-4.4-7.6-12-25.6-12h-88.4c5.6-9.2,13.6-18.8,22-21.2c3.2-0.8,5.2-4.4,4-7.6  c-0.8-3.2-4.4-5.2-7.6-4c-15.2,4.4-26.4,20.8-32.8,32.8h-133.6c-17.6,0-23.6,7.6-25.6,12c-2,4.4-3.2,14,9.2,26.4l102.4,104  c3.6,3.6,8,6.8,12.4,8.8v100c-18.4,4.4-30,14.8-30,26.8c0,16.4,21.6,29.2,49.6,29.2c27.6,0,49.6-12.8,49.6-29.2  c0-12-11.6-22.4-30-26.8v-100c4.4-2.4,8.8-5.2,12.4-8.8l102.4-104C317.184,59.152,315.984,49.952,313.984,45.152z M174.384,50.352  c7.6,0,13.6,6,13.6,13.6s-6,13.6-13.6,13.6s-13.6-6-13.6-13.6S166.784,50.352,174.384,50.352z M232.384,96.752l-43.6,44.4  c-4.8,4.8-11.2,7.6-18,7.6c-6.8,0-13.2-2.8-18-7.6l-44.4-45.2c9.2-2.8,24.4-6.4,42.4-6.4c8,0,15.6,0.8,22.8,2  C179.984,92.752,203.184,96.752,232.384,96.752z M207.984,311.552c0,8-16,16.8-37.6,16.8s-37.6-8.8-37.6-16.8  c0-6.4,10.8-13.6,24.8-16c2.8-0.4,5.2-3.2,5.2-6v-100.8c2.4,0.4,4.8,0.8,7.6,0.8c2.4,0,4.8-0.4,7.6-0.8v101.2c0,2.8,2,5.6,5.2,6  C197.184,297.952,207.984,304.752,207.984,311.552z M295.984,63.152l-102.4,104c-6.4,6.4-14.4,10-23.6,10c-8.8,0-17.2-3.6-23.6-10  l-102.4-104c-6.4-6.4-7.6-11.2-6.8-13.2c0.8-2,5.2-4.4,14.4-4.4h104c-4.8,4.8-7.6,11.2-7.6,18.4c0,5.2,1.6,9.6,4,13.6  c-0.8,0-1.2,0-2,0c-31.2,0-54.8,9.6-56,10c-2,0.8-3.2,2.4-3.6,4.4c-0.4,2,0.4,4,1.6,5.6l51.6,52.4c7.2,7.2,16.4,11.2,26.4,11.2  s19.6-4,26.4-11.2l54-55.2c1.6-1.6,2.4-4.4,1.2-6.8c-1.2-2.4-3.2-3.6-6-3.6c-4.4,0.4-9.2,0.4-13.6,0.4c-16,0-30.4-1.2-40.8-2.4  c4.8-4.8,7.6-11.2,7.6-18.4c0-6.8-2.8-12.8-7.2-17.6c0-0.4,0.4-0.4,0.4-0.8h95.2c9.2,0,13.2,2.4,14.4,4.4  C303.584,51.952,302.384,56.752,295.984,63.152z"/>
<g>
</g>
<g>
</g>
<g>
</g>
<g>
</g>
<g>
</g>
<g>
</g>
<g>
</g>
<g>
</g>
<g>
</g>
<g>
</g>
<g>
</g>
<g>
</g>
<g>
</g>
<g>
</g>
<g>
</g>
</svg>