<?xml version="1.0" encoding="windows-1252"?>
<!-- Generator: Adobe Illustrator 19.0.0, SVG Export Plug-In . SVG Version: 6.00 Build 0)  -->
<svg version="1.1" id="Capa_1" xmlns="http://www.w3.org/2000/svg" xmlns:xlink="http://www.w3.org/1999/xlink" x="0px" y="0px" viewBox="0 0 380.4 380.4" style="enable-background:new 0 0 380.4 380.4;" xml:space="preserve">
<path style="fill:#F4F5F7;" d="M176.535,222.8v106.4c-17.6,3.2-30,11.6-30,22c0,12.8,19.6,23.2,43.6,23.2s43.6-10.4,43.6-23.2  c0-10.4-12.4-18.8-30-22v-106L176.535,222.8z"/>
<g>
	<path style="fill:#FFFFFF;" d="M216.935,342.4c6,1.2,11.6,2.8,16,5.2c-1.6-6-7.6-11.2-16-14.4V342.4z"/>
	<path style="fill:#FFFFFF;" d="M159.735,364.4c0-10.4,12.4-18.8,30-22V222.8h-13.2v106.4c-17.6,3.2-30,11.6-30,22   c0,6.8,5.2,12.8,14,16.8C160.135,366.8,159.735,365.6,159.735,364.4z"/>
</g>
<path style="fill:#F4F5F7;" d="M201.735,222c-12,1.6-28-0.4-28-0.4c-125.2-14.8-44.8-216-44.8-216h59.2h59.2  C247.335,5.6,337.735,209.2,201.735,222z"/>
<path style="fill:#FFFFFF;" d="M197.335,221.6c-125.2-14.8-44.8-216-44.8-216h-24c0,0-80.4,201.2,44.8,216c0,0,15.6,2,27.6,0.4  C198.935,222,197.335,221.6,197.335,221.6z"/>
<path style="fill:#FB6E52;" d="M209.335,196c39.2-9.2,45.2-41.2,42.8-75.6c-18.4,5.2-38.8,6.4-62,2c-36.8-7.2-58.4,5.2-62.8,5.2  c0,30.4,7.2,58.8,38.4,68.4C173.335,198.4,194.935,199.2,209.335,196z"/>
<path style="fill:#F98F7D;" d="M186.535,196c-31.2-9.6-38.4-38-38.4-68.4c2.8,0,13.2-5.2,30-6.8c-29.6-2.8-46.8,6.8-50.8,6.8  c0,30.4,7.2,58.8,38.4,68.4c5.6,1.6,19.2,2.8,31.6,1.6C192.535,197.2,188.935,196.8,186.535,196z"/>
<g>
	<path style="fill:#56596A;" d="M269.335,189.6c37.2-63.6-14-181.2-16.4-186c-0.8-2-3.2-3.6-5.6-3.6h-118.4c-2.4,0-4.8,1.6-5.6,4   c-2,5.2-48.8,124-11.2,187.2c12.4,20.4,32,32.8,58.8,36.4v96.8c-18.4,4.4-30,14.8-30,26.8c0,16.4,21.6,29.2,49.6,29.2   s49.6-12.8,49.6-29.2c0-12-11.6-22.4-30-26.8v-97.2C236.935,222.8,257.335,210.4,269.335,189.6z M227.335,351.2   c0,8-16,16.8-37.6,16.8s-37.6-8.8-37.6-16.8c0-6.4,10.8-13.6,24.8-16c2.8-0.4,5.2-3.2,5.2-6V228.8c2.4,0,4.8,0.4,7.6,0.4   c2.4,0,4.8,0,7.2-0.4v100.4c0,2.8,2,5.6,5.2,6C216.535,337.6,227.335,344.4,227.335,351.2z M200.935,216c-2.8,0.4-6.4,0.8-10.4,0.8   c-8.4,0-16-0.8-16-0.8c-24.4-2.8-41.2-12.8-52-30.8c-30.8-52,3.2-152,10.8-172.8h110.4c8.4,20,46,119.2,15.6,171.6   C247.735,202.4,228.535,213.6,200.935,216z"/>
	<path style="fill:#56596A;" d="M258.135,120c0-2-1.2-3.6-2.4-4.4c-1.6-1.2-3.2-1.2-5.2-0.8c-18.8,5.2-38.8,6-59.2,2   c-8-1.6-16-2.4-23.6-2.4c-17.6,0-30,4-36.8,6c-1.6,0.4-2.8,0.8-3.6,1.2c-1.6,0-3.2,0.8-4.4,1.6c-1.2,1.2-1.6,2.8-1.6,4.4   c0,15.2,0,61.2,42.4,74.4c4.8,1.6,13.6,2.4,22.8,2.4c6.4,0,16-0.4,24.4-2.4C257.735,190.4,260.535,149.6,258.135,120z M208.135,190   c-5.6,1.2-13.2,2-21.6,2c-9.2,0-16.4-0.8-19.2-2c-22.4-7.2-33.2-24.8-34-58c0.4,0,0.8-0.4,1.2-0.4c6.4-2,17.6-5.6,33.2-5.6   c6.8,0,14,0.8,21.6,2c20,3.6,39.2,3.6,57.6-0.4C247.735,164.4,236.135,183.2,208.135,190z"/>
</g>
<g>
</g>
<g>
</g>
<g>
</g>
<g>
</g>
<g>
</g>
<g>
</g>
<g>
</g>
<g>
</g>
<g>
</g>
<g>
</g>
<g>
</g>
<g>
</g>
<g>
</g>
<g>
</g>
<g>
</g>
</svg>